<?xml version="1.0" encoding="utf-8"?>
<!-- Generator: Adobe Illustrator 25.2.1, SVG Export Plug-In . SVG Version: 6.00 Build 0)  -->
<svg version="1.1" id="Layer_1" xmlns="http://www.w3.org/2000/svg" xmlns:xlink="http://www.w3.org/1999/xlink" x="0px" y="0px"
	 viewBox="0 0 993.7 541.3" style="enable-background:new 0 0 993.7 541.3;" xml:space="preserve">
<style type="text/css">
	.st0{fill:none;}
	.st1{fill:#FFFFFF;}
</style>
<rect class="st0" width="993.7" height="541.3"/>
<g>
	<g>
		<path class="st1" d="M197.9,315.3c-3.5-3.8-7.6-7-12.2-9.2c-4.9-2.4-10.3-3.5-15.7-3.5h-50.8v119.2h27.6v-38.5h24.1
			c5.4,0.1,10.7-1.1,15.6-3.4c4.6-2.2,8.7-5.2,12-9.1c3.3-3.8,5.9-8.2,7.7-12.9c1.9-4.8,2.8-9.9,2.8-15.1c0-5-1-10-2.9-14.6
			C204.1,323.5,201.3,319.1,197.9,315.3z M177.5,355.1c-2,2.6-5.1,4.2-8.4,4.3h-22.4v-32.6h21.4c1.6,0,3.2,0.3,4.7,0.9
			c1.6,0.6,3.1,1.6,4.3,2.9c1.3,1.5,2.3,3.2,2.9,5c0.8,2.3,1.2,4.8,1.1,7.2C181.1,348.2,179.9,352.3,177.5,355.1z"/>
		<path class="st1" d="M297.8,371.3c2.4-2.4,4.5-5.2,6.1-8.1c1.7-3,3-6.3,3.9-9.6c0.9-3.5,1.4-7.1,1.4-10.7c0-5-1-10-2.9-14.6
			c-1.9-4.8-4.7-9.1-8.1-12.9c-3.5-3.8-7.7-6.9-12.3-9.2c-4.9-2.4-10.2-3.5-15.6-3.5h-53.7v119.2H244v-38.5h17.9l24,38.4h31
			l-27.3-44.3C292.6,375.8,295.3,373.7,297.8,371.3z M277.5,354.7c-1.9,2.8-5,4.5-8.4,4.6H244v-32.5h24.3c3.4,0.1,6.6,1.7,8.7,4.4
			c2.8,3.3,4.3,7.5,4,11.7C281.2,347.1,280,351.3,277.5,354.7z"/>
		<rect x="323.8" y="302.6" class="st1" width="27.5" height="119.2"/>
		<polygon class="st1" points="441.2,372.6 385.6,302.6 364.1,302.6 364.1,421.7 391.7,421.7 391.7,353.6 446.5,421.7 468.7,421.7 
			468.7,302.6 441.2,302.6 		"/>
		<polygon class="st1" points="475.4,326.8 511.8,326.8 511.8,421.7 539.3,421.7 539.3,326.8 575.6,326.8 575.6,302.6 475.4,302.6 
					"/>
		<polygon class="st1" points="582.5,421.7 610,421.7 610,374.8 654,374.8 654,352.4 610,352.4 610,326.8 663.4,326.8 663.4,302.6 
			582.5,302.6 		"/>
		<path class="st1" d="M746.9,363.5c0,4.3-0.4,8.6-1.2,12.8c-0.7,3.9-2.2,7.7-4.3,11.2c-2,3.2-4.7,5.9-7.9,7.8
			c-10.8,6.6-24.9,3.1-31.5-7.6c-2.1-3.4-3.6-7.2-4.4-11.1c-0.9-4.3-1.4-8.7-1.3-13.1v-60.8h-27.5v60.9c0,7.6,1,15.1,2.9,22.5
			c1.8,6.8,4.9,13.3,9.2,18.9c4.4,5.6,10,10,16.4,13c6.7,3.2,14.8,4.9,24.3,4.9c8.2,0.2,16.3-1.4,23.8-4.6c6.4-2.9,12-7.2,16.4-12.7
			c4.4-5.6,7.7-12,9.6-18.8c2.1-7.5,3.2-15.3,3.1-23.1v-60.9h-27.5V363.5z"/>
		<polygon class="st1" points="816.4,397.6 816.4,302.6 788.9,302.6 788.9,421.7 874.2,421.7 874.2,397.6 		"/>
		<polygon class="st1" points="246.3,180.6 210.4,118.9 119.1,275.5 191,275.5 		"/>
		<polygon class="st1" points="283.9,275.5 301.6,275.5 292.7,260.3 		"/>
		<polygon class="st1" points="273.4,275.5 287.5,251.3 251.6,189.6 201.5,275.5 		"/>
		<polygon class="st1" points="292.7,242.3 328.7,180.6 292.7,118.9 256.8,180.6 290.2,238 		"/>
		<polygon class="st1" points="312.1,275.5 384,275.5 334,189.6 298,251.3 		"/>
		<polygon class="st1" points="466.4,275.5 375.1,118.9 339.2,180.6 394.5,275.5 		"/>
	</g>
	<rect x="0" class="st0" width="993.7" height="541.3"/>
</g>
</svg>
