<svg version="1.1" id="Layer_1" xmlns="http://www.w3.org/2000/svg" x="0" y="0" viewBox="0 0 993.7 541.3" style="enable-background:new 0 0 993.7 541.3" xml:space="preserve"><style>.st0{fill:none}.st1{fill:#fff}</style><path class="st0" d="M0 0h993.7v541.3H0z"/><path class="st1" d="M197.9 315.3c-3.5-3.8-7.6-7-12.2-9.2-4.9-2.4-10.3-3.5-15.7-3.5h-50.8v119.2h27.6v-38.5h24.1c5.4.1 10.7-1.1 15.6-3.4 4.6-2.2 8.7-5.2 12-9.1 3.3-3.8 5.9-8.2 7.7-12.9 1.9-4.8 2.8-9.9 2.8-15.1 0-5-1-10-2.9-14.6-2-4.7-4.8-9.1-8.2-12.9zm-20.4 39.8c-2 2.6-5.1 4.2-8.4 4.3h-22.4v-32.6h21.4c1.6 0 3.2.3 4.7.9 1.6.6 3.1 1.6 4.3 2.9 1.3 1.5 2.3 3.2 2.9 5 .8 2.3 1.2 4.8 1.1 7.2 0 5.4-1.2 9.5-3.6 12.3zM297.8 371.3c2.4-2.4 4.5-5.2 6.1-8.1 1.7-3 3-6.3 3.9-9.6.9-3.5 1.4-7.1 1.4-10.7 0-5-1-10-2.9-14.6-1.9-4.8-4.7-9.1-8.1-12.9-3.5-3.8-7.7-6.9-12.3-9.2-4.9-2.4-10.2-3.5-15.6-3.5h-53.7v119.2H244v-38.5h17.9l24 38.4h31l-27.3-44.3c3-1.7 5.7-3.8 8.2-6.2zm-20.3-16.6c-1.9 2.8-5 4.5-8.4 4.6H244v-32.5h24.3c3.4.1 6.6 1.7 8.7 4.4 2.8 3.3 4.3 7.5 4 11.7.2 4.2-1 8.4-3.5 11.8zM323.8 302.6h27.5v119.2h-27.5zM441.2 372.6l-55.6-70h-21.5v119.1h27.6v-68.1l54.8 68.1h22.2V302.6h-27.5zM475.4 326.8h36.4v94.9h27.5v-94.9h36.3v-24.2H475.4zM582.5 421.7H610v-46.9h44v-22.4h-44v-25.6h53.4v-24.2h-80.9zM746.9 363.5c0 4.3-.4 8.6-1.2 12.8-.7 3.9-2.2 7.7-4.3 11.2-2 3.2-4.7 5.9-7.9 7.8-10.8 6.6-24.9 3.1-31.5-7.6-2.1-3.4-3.6-7.2-4.4-11.1-.9-4.3-1.4-8.7-1.3-13.1v-60.8h-27.5v60.9c0 7.6 1 15.1 2.9 22.5 1.8 6.8 4.9 13.3 9.2 18.9 4.4 5.6 10 10 16.4 13 6.7 3.2 14.8 4.9 24.3 4.9 8.2.2 16.3-1.4 23.8-4.6 6.4-2.9 12-7.2 16.4-12.7 4.4-5.6 7.7-12 9.6-18.8 2.1-7.5 3.2-15.3 3.1-23.1v-60.9H747v60.7zM816.4 397.6v-95h-27.5v119.1h85.3v-24.1zM246.3 180.6l-35.9-61.7-91.3 156.6H191zM283.9 275.5h17.7l-8.9-15.2zM273.4 275.5l14.1-24.2-35.9-61.7-50.1 85.9zM292.7 242.3l36-61.7-36-61.7-35.9 61.7 33.4 57.4zM312.1 275.5H384l-50-85.9-36 61.7zM466.4 275.5l-91.3-156.6-35.9 61.7 55.3 94.9z"/><path class="st0" d="M0 0h993.7v541.3H0z"/></svg>